# xmcd CD database file generated by OrangeCD 6.3
#
# Track frame offsets:
#	150
#	19180
#	35000
#	46322
#	61465
#	74630
#	89825
#	102032
#	120122
#	131912
#	143022
#	155585
#	175207
#	188395
#	200742
#	213960
#
# Disc length: 3073 seconds
#
# Revision: 1
# Processed by: cddbd v1.5.2PL0 Copyright (c) Steve Scherf et al.
# Submitted via: OrangeCD 6.3
#
DISCID=e80bff10
DTITLE=The Dean Brothers - On The Right Tracks
DYEAR=1996
DGENRE=Country
TTITLE0=My Baby Thinks She's A Train
TTITLE1=You're Gonna Miss Me
TTITLE2=Hank
TTITLE3=I Forgot To Remember
TTITLE4=Lazy Bed
TTITLE5=The Hard Way
TTITLE6=Battle Of New Orleans
TTITLE7=Seven Spanish Angels
TTITLE8=Running Bear
TTITLE9=Sometimes It Hurts
TTITLE10=I Forgot To Remember (Fast)
TTITLE11=I Don't Know
TTITLE12=Cryin' In The Rain
TTITLE13=She Loves Me Not
TTITLE14=Loose Women
TTITLE15=Limbo Lady
EXTD=
EXTT0=
EXTT1=
EXTT2=
EXTT3=
EXTT4=
EXTT5=
EXTT6=
EXTT7=
EXTT8=
EXTT9=
EXTT10=
EXTT11=
EXTT12=
EXTT13=
EXTT14=
EXTT15=
PLAYORDER=
